<svg xmlns="http://www.w3.org/2000/svg" viewBox="0 0 512 512" width="512" height="512">
  <!-- Center circle -->
  <circle cx="256" cy="256" r="120" fill="#1e1e2e"/>
  
  <!-- Orbiting icons -->
  <!-- Top: Code bracket -->
  <g transform="translate(216, 64)">
    <rect x="0" y="0" width="80" height="80" rx="16" fill="#89b4fa"/>
    <text x="40" y="52" font-family="monospace" font-size="32" fill="#1e1e2e" text-anchor="middle" font-weight="bold">&lt;/&gt;</text>
  </g>
  
  <!-- Right: Gear -->
  <g transform="translate(368, 216)">
    <rect x="0" y="0" width="80" height="80" rx="16" fill="#f9e2af"/>
    <circle cx="40" cy="40" r="16" stroke="#1e1e2e" stroke-width="4" fill="none"/>
    <circle cx="40" cy="40" r="6" fill="#1e1e2e"/>
    <line x1="40" y1="16" x2="40" y2="24" stroke="#1e1e2e" stroke-width="4" stroke-linecap="round"/>
    <line x1="40" y1="56" x2="40" y2="64" stroke="#1e1e2e" stroke-width="4" stroke-linecap="round"/>
    <line x1="16" y1="40" x2="24" y2="40" stroke="#1e1e2e" stroke-width="4" stroke-linecap="round"/>
    <line x1="56" y1="40" x2="64" y2="40" stroke="#1e1e2e" stroke-width="4" stroke-linecap="round"/>
  </g>
  
  <!-- Bottom: Folder -->
  <g transform="translate(216, 368)">
    <rect x="0" y="0" width="80" height="80" rx="16" fill="#a6e3a1"/>
    <path d="M16 32 L16 64 L64 64 L64 24 L40 24 L34 32 Z" stroke="#1e1e2e" stroke-width="4" fill="none" stroke-linejoin="round"/>
  </g>
  
  <!-- Left: JS badge -->
  <g transform="translate(64, 216)">
    <rect x="0" y="0" width="80" height="80" rx="16" fill="#f9e2af"/>
    <text x="40" y="52" font-family="sans-serif" font-size="32" fill="#1e1e2e" text-anchor="middle" font-weight="bold">JS</text>
  </g>
</svg>
